<?xml version="1.0" encoding="UTF-8"?>
<svg id="Layer_1" xmlns="http://www.w3.org/2000/svg" version="1.1" viewBox="0 0 153 69">
  <!-- Generator: Adobe Illustrator 29.8.4, SVG Export Plug-In . SVG Version: 2.1.1 Build 6)  -->
  <defs>
    <style>
      .st0 {
        fill: #bcbcbc;
      }
    </style>
  </defs>
  <path class="st0" d="M88.65,2.55C84.64.86,80.39,0,76.01,0s-8.63.86-12.64,2.55c-3.87,1.64-7.34,3.97-10.32,6.96-2.1,2.1-3.88,4.45-5.32,7h4.56c1.02-1.52,2.2-2.94,3.51-4.26,2.62-2.62,5.68-4.69,9.08-6.12,3.52-1.49,7.26-2.25,11.12-2.25s7.6.76,11.12,2.25c3.4,1.44,6.46,3.5,9.08,6.12,1.31,1.31,2.49,2.74,3.51,4.26h4.56c-1.44-2.55-3.22-4.9-5.32-7-2.98-2.98-6.45-5.32-10.32-6.96h0Z"/>
  <path class="st0" d="M53.15,24.4l-2.05-3.88H0l2.05,3.88h51.1Z"/>
  <path class="st0" d="M12.23,43.68l2.12,4.02h36.74l2.12-4.02H12.23Z"/>
  <path class="st0" d="M10.24,39.93h44.94l2.05-3.88H8.2l2.05,3.88Z"/>
  <path class="st0" d="M55.13,28.15H4.03l2.12,4.02h51.1l-2.12-4.02Z"/>
  <path class="st0" d="M149.97,24.4l2.05-3.88h-51.08l-2.05,3.88h51.08Z"/>
  <path class="st0" d="M98.81,43.68l2.12,4.02h36.75l2.12-4.02h-40.98Z"/>
  <path class="st0" d="M96.83,39.93h44.94l2.05-3.88h-49.04l2.05,3.88Z"/>
  <path class="st0" d="M94.79,32.2h51.08l2.12-4.07h-51.09l-2.12,4.07Z"/>
  <path class="st0" d="M92.27,47.69h4.37l-20.66-39-20.59,39h4.39l5.12-9.7h22.16l5.21,9.7h0ZM75.98,16.93l9.02,17.18h-17.92l8.9-17.18Z"/>
  <path class="st0" d="M105.18,51.71c4.6,0,8.33,3.73,8.33,8.32s-3.73,8.32-8.33,8.32h-58.34c-4.6,0-8.33-3.73-8.33-8.32,0-4.6,3.73-8.32,8.33-8.32h58.34ZM72.57,55.87c-1.15,0-2.21.42-2.97,1.18-.76.76-1.18,1.82-1.18,2.97,0,1.16.42,2.21,1.18,2.97.76.76,1.81,1.18,2.97,1.18h0c1.16,0,2.21-.42,2.97-1.18.76-.76,1.18-1.82,1.18-2.98,0-1.16-.42-2.22-1.18-2.98-.76-.76-1.82-1.18-2.97-1.18ZM48.33,56.08v7.88h1.65l.08-.11,3.78-5.62v5.74h1.4,0v-7.9h-1.64l-.07.11-3.78,5.62v-5.73h-1.42ZM58.88,56.09v7.89h1.44v-6.4h3.6v6.4h1.44v-7.89h-6.48ZM79.74,56.09v7.89h1.43v-6.4h3.61v6.4h1.43v-7.89h-6.47ZM98.22,56.09v1.25s0,.24,0,.24h2.56v6.4h1.44v-6.4h2.56v-1.49h-6.56ZM92.27,56.09l-.07.16-3.19,7.35-.16.38h1.53l.89-2.09h3.12l.79,1.94.07.16h1.51l-.14-.37-2.99-7.35-.07-.16h-1.3ZM72.58,57.24c1.54,0,2.66,1.17,2.66,2.79,0,1.61-1.12,2.79-2.66,2.79-1.54,0-2.66-1.17-2.66-2.79,0-1.61,1.12-2.79,2.66-2.79ZM93.79,60.38h-1.89l.97-2.23.92,2.23Z"/>
</svg>