<svg width="78" height="80" viewBox="0 0 78 80" fill="none" xmlns="http://www.w3.org/2000/svg">
<path d="M37.8069 46.2699C42.0061 46.3822 46.0385 47.9309 49.225 50.6552C52.4116 53.3794 54.5576 57.1128 55.3018 61.2266C58.6488 59.7158 61.8475 57.899 64.8568 55.7997L53.4398 24.6386C53.3108 24.2914 53.3188 23.9085 53.4622 23.5669C53.6056 23.2254 53.8737 22.9507 54.2125 22.798C55.4117 22.2594 57.3738 21.1766 58.996 20.4445C63.9762 18.1956 64.1019 10.7164 56.4983 9.41424C55.4579 9.35925 54.4147 9.3852 53.3784 9.49186C39.6248 10.8106 40.3982 6.3889 39.372 1.86934C39.3374 1.6732 39.2559 1.48822 39.1343 1.33003C39.0126 1.17184 38.8546 1.0451 38.6733 0.960524C38.4921 0.875946 38.2931 0.836013 38.0932 0.844103C37.8932 0.852193 37.6982 0.908068 37.5245 1.007C26.3936 7.29757 31.0374 25.0304 32.5248 29.7857C32.575 29.9379 32.592 30.099 32.5748 30.2582C32.5576 30.4175 32.5065 30.5713 32.425 30.7093C32.3434 30.8474 32.2332 30.9666 32.1018 31.0591C31.9703 31.1515 31.8206 31.215 31.6626 31.2454L7.70419 36.4102C7.08671 36.5415 6.54022 36.8961 6.17059 37.4055C5.80097 37.9148 5.6345 38.5425 5.70343 39.1671C6.34328 44.8365 7.99914 59.5855 8.60566 65.8001C12.1311 66.7599 15.7333 67.4149 19.3719 67.7579C19.1375 66.4971 19.0361 65.2156 19.0691 63.934C19.2032 59.1199 21.2517 54.556 24.7648 51.2442C28.2779 47.9325 32.9685 46.1434 37.8069 46.2699V46.2699Z" fill="#BCBCBC"/>
<path d="M26.236 74.7375C17.2716 74.74 8.38149 73.1196 0 69.9555L0.816564 75.8539C13.7708 80.2 27.6325 81.1488 41.0629 78.6087C54.4932 76.0685 67.0382 70.1253 77.4864 61.353L75.417 56.168C61.8622 68.142 44.362 74.7496 26.236 74.7375Z" fill="#BCBCBC"/>
</svg>
