<svg width="72" height="91" viewBox="0 0 72 91" fill="none" xmlns="http://www.w3.org/2000/svg">
<path d="M68.4115 31.8878H66.1871V26.7019C66.1871 22.2312 62.761 18.6057 58.5362 18.6057H54.0657L51.3443 14.9323H45.4499L54.83 0H48.4838L39.1036 14.9323H32.4701L41.8485 0H35.5023L26.1221 14.9323H20.8908L18.1695 18.6057H13.6989C9.47233 18.6057 6.04805 22.2312 6.04805 26.7019V31.8878H3.05204C1.3661 31.8878 0 33.3334 0 35.1175V48.3632H6.04625V90.8809H16.8937V83.4864H55.3396V90.8828H66.1871V48.3652H71.4635V35.1194C71.4635 33.3353 70.0974 31.8897 68.4115 31.8897V31.8878ZM47.9833 21.4701V26.6235H24.25V21.4701H47.9815H47.9833ZM12.4629 56.6354V31.8878H59.7722V56.6354C59.7722 59.1805 57.8224 61.2457 55.4155 61.2457H16.8178C14.4127 61.2457 12.4611 59.1824 12.4611 56.6354H12.4629ZM19.0296 76.0996C16.5974 76.0996 14.6259 74.1243 14.6259 71.6863C14.6259 69.2482 16.5974 67.2729 19.0296 67.2729C21.4618 67.2729 23.4333 69.2482 23.4333 71.6863C23.4333 74.1243 21.4618 76.0996 19.0296 76.0996ZM52.4339 76.0996C50.0017 76.0996 48.0303 74.1243 48.0303 71.6863C48.0303 69.2482 50.0017 67.2729 52.4339 67.2729C54.8662 67.2729 56.8376 69.2482 56.8376 71.6863C56.8376 74.1243 54.8662 76.0996 52.4339 76.0996Z" fill="#BCBCBC"/>
</svg>
