<svg viewBox="0 0 52 26" xmlns="http://www.w3.org/2000/svg" xmlns:xlink="http://www.w3.org/1999/xlink"><clipPath id="a"><path d="m0 0h52v26h-52z"/></clipPath><clipPath id="b"><path d="m0 0h26v26h-26z" transform="matrix(.8660254 -.5 .5 .8660254 -4.76 8.24)"/></clipPath><clipPath id="c"><path d="m0 0h26v26h-26z" transform="matrix(.5 -.8660254 .8660254 .5 -4.76 17.76)"/></clipPath><g clip-path="url(#a)"><path d="m43.14 16.54c-4.24 0-7.68-3.44-7.68-7.68 0-1.74.58-3.35 1.56-4.64.14-.19-.01-.47-.24-.41-4.15 1-7.23 4.74-7.23 9.19 0 5.22 4.23 9.45 9.45 9.45 4.45 0 8.19-3.08 9.19-7.23.06-.23-.22-.39-.41-.24-1.29.98-2.9 1.56-4.64 1.56z" fill-rule="evenodd"/><circle cx="13" cy="13" r="6"/><path d="m5.61 4.19c.42-.36 1.05-.3 1.41.12l1.29 1.53c.36.42.3 1.05-.12 1.41-.42.36-1.05.3-1.41-.12l-1.29-1.53c-.36-.42-.3-1.05.12-1.41z"/><path d="m1.68 11c.1-.54.61-.91 1.16-.81l1.97.35c.54.1.91.61.81 1.16-.1.54-.61.91-1.16.81l-1.97-.35c-.54-.1-.91-.61-.81-1.16z"/><g clip-path="url(#b)"><path d="m3.05 18.75c-.28-.48-.11-1.09.37-1.37l1.73-1c.48-.28 1.09-.11 1.37.37.28.48.11 1.09-.37 1.37l-1.73 1c-.48.28-1.09.11-1.37-.37z"/></g><path d="m9.07 23.81c-.52-.19-.79-.76-.6-1.28l.68-1.88c.19-.52.76-.79 1.28-.6.52.19.79.76.6 1.28l-.68 1.88c-.19.52-.76.79-1.28.6z"/><path d="m16.94 23.81c-.52.19-1.09-.08-1.28-.6l-.68-1.88c-.19-.52.08-1.09.6-1.28.52-.19 1.09.08 1.28.6l.68 1.88c.19.52-.08 1.09-.6 1.28z"/><g clip-path="url(#c)"><path d="m22.96 18.75c-.28.48-.89.64-1.37.37l-1.73-1c-.48-.28-.64-.89-.37-1.37.28-.48.89-.64 1.37-.37l1.73 1c.48.28.64.89.37 1.37z"/></g><path d="m24.33 11c.1.54-.27 1.06-.81 1.16l-1.97.35c-.54.1-1.06-.27-1.16-.81-.1-.54.27-1.06.81-1.16l1.97-.35c.54-.1 1.06.27 1.16.81z"/><path d="m20.4 4.19c.42.36.48.99.12 1.41l-1.29 1.53c-.36.42-.99.48-1.41.12-.42-.36-.48-.99-.12-1.41l1.29-1.53c.36-.42.99-.48 1.41-.12z"/><path d="m13 1.5c.55 0 1 .45 1 1v2c0 .55-.45 1-1 1-.55 0-1-.45-1-1v-2c0-.55.45-1 1-1z"/></g></svg>