<?xml version="1.0" encoding="UTF-8"?>
<svg id="Layer_1" xmlns="http://www.w3.org/2000/svg" xmlns:xlink="http://www.w3.org/1999/xlink" version="1.1" viewBox="0 0 52 26">
  <!-- Generator: Adobe Illustrator 29.8.4, SVG Export Plug-In . SVG Version: 2.1.1 Build 6)  -->
  <defs>
    <style>
      .st0 {
        fill: none;
      }

      .st1 {
        clip-path: url(#clippath-1);
      }

      .st2 {
        clip-path: url(#clippath-2);
      }

      .st3 {
        fill-rule: evenodd;
      }

      .st4 {
        clip-path: url(#clippath);
      }
    </style>
    <clipPath id="clippath">
      <rect class="st0" width="52" height="26"/>
    </clipPath>
    <clipPath id="clippath-1">
      <rect class="st0" x="0" y="0" width="26" height="26" transform="translate(-4.76 8.24) rotate(-30)"/>
    </clipPath>
    <clipPath id="clippath-2">
      <rect class="st0" x="0" y="0" width="26" height="26" transform="translate(-4.76 17.76) rotate(-60)"/>
    </clipPath>
  </defs>
  <g class="st4">
    <g>
      <path class="st3" d="M43.14,16.54c-4.24,0-7.68-3.44-7.68-7.68,0-1.74.58-3.35,1.56-4.64.14-.19-.01-.47-.24-.41-4.15,1-7.23,4.74-7.23,9.19,0,5.22,4.23,9.45,9.45,9.45,4.45,0,8.19-3.08,9.19-7.23.06-.23-.22-.39-.41-.24-1.29.98-2.9,1.56-4.64,1.56Z"/>
      <circle cx="13" cy="13" r="6"/>
      <path d="M5.61,4.19h0c.42-.36,1.05-.3,1.41.12l1.29,1.53c.36.42.3,1.05-.12,1.41h0c-.42.36-1.05.3-1.41-.12l-1.29-1.53c-.36-.42-.3-1.05.12-1.41Z"/>
      <path d="M1.68,11h0c.1-.54.61-.91,1.16-.81l1.97.35c.54.1.91.61.81,1.16h0c-.1.54-.61.91-1.16.81l-1.97-.35c-.54-.1-.91-.61-.81-1.16Z"/>
      <g class="st1">
        <path d="M3.05,18.75h0c-.28-.48-.11-1.09.37-1.37l1.73-1c.48-.28,1.09-.11,1.37.37h0c.28.48.11,1.09-.37,1.37l-1.73,1c-.48.28-1.09.11-1.37-.37Z"/>
      </g>
      <path d="M9.07,23.81h0c-.52-.19-.79-.76-.6-1.28l.68-1.88c.19-.52.76-.79,1.28-.6h0c.52.19.79.76.6,1.28l-.68,1.88c-.19.52-.76.79-1.28.6Z"/>
      <path d="M16.94,23.81h0c-.52.19-1.09-.08-1.28-.6l-.68-1.88c-.19-.52.08-1.09.6-1.28h0c.52-.19,1.09.08,1.28.6l.68,1.88c.19.52-.08,1.09-.6,1.28Z"/>
      <g class="st2">
        <path d="M22.96,18.75h0c-.28.48-.89.64-1.37.37l-1.73-1c-.48-.28-.64-.89-.37-1.37h0c.28-.48.89-.64,1.37-.37l1.73,1c.48.28.64.89.37,1.37Z"/>
      </g>
      <path d="M24.33,11h0c.1.54-.27,1.06-.81,1.16l-1.97.35c-.54.1-1.06-.27-1.16-.81h0c-.1-.54.27-1.06.81-1.16l1.97-.35c.54-.1,1.06.27,1.16.81Z"/>
      <path d="M20.4,4.19h0c.42.36.48.99.12,1.41l-1.29,1.53c-.36.42-.99.48-1.41.12h0c-.42-.36-.48-.99-.12-1.41l1.29-1.53c.36-.42.99-.48,1.41-.12Z"/>
      <path d="M13,1.5h0c.55,0,1,.45,1,1v2c0,.55-.45,1-1,1h0c-.55,0-1-.45-1-1v-2c0-.55.45-1,1-1Z"/>
    </g>
  </g>
</svg>